<svg version="1.1" xmlns="http://www.w3.org/2000/svg" xmlns:xlink="http://www.w3.org/1999/xlink" width="384.2323" height="163.88472" viewBox="0,0,384.2323,163.88472"><g transform="translate(-21.14882,-220.77291)"><g data-paper-data="{&quot;isPaintingLayer&quot;:true}" fill-rule="nonzero" stroke="none" stroke-width="1" stroke-linecap="butt" stroke-linejoin="miter" stroke-miterlimit="10" stroke-dasharray="" stroke-dashoffset="0" style="mix-blend-mode: normal"><path d="M395.88525,282.40193h-6.2901c-7.52179,0 -13.4221,2.7901 -13.4221,18.20488c0,14.80062 5.39299,19.71952 13.53232,19.71952h6.17988zM404.02457,271.50895c0.86388,0 1.35656,0.3712 1.35656,1.2317v90.27839c0,0.61416 -0.24633,0.98536 -0.98535,0.98536h-9.14665c-0.49268,0 -0.86388,-0.49268 -0.86388,-0.86388v-33.4212h-2.16524l-17.14254,33.4212c-0.24634,0.61753 -0.74239,0.86388 -1.48141,0.86388h-11.25687c-0.98536,0 -1.60289,-0.86388 -0.98536,-1.97409l18.87029,-34.03873c-10.11342,-4.43748 -15.78598,-13.44069 -15.78598,-25.64969c0,-20.34832 11.71294,-30.83294 25.52821,-30.83294h14.05822" fill="#231f20"/><path d="M299.95114,273.24805h11.53216c0.93133,0 1.48605,0.74302 1.48605,1.30284v35.52274h21.38998v-35.52274c0,-0.93133 0.37151,-1.30284 1.30284,-1.30284h11.53217c0.92624,0 1.48605,0.55982 1.48605,1.30284v90.39468c0,0.92624 -0.37151,1.48605 -1.29775,1.48605h-11.72047c-0.74302,0 -1.30284,-0.55981 -1.30284,-1.48605v-43.15148h-21.38998v43.15148c0,0.92624 -0.55473,1.48605 -1.48605,1.48605h-11.53216c-0.93133,0 -1.30284,-0.74812 -1.30284,-1.48605v-90.39468c0,-0.74302 0.55982,-1.30284 1.30284,-1.30284" data-paper-data="{&quot;index&quot;:null}" fill="#231f20"/><path d="M100.00312,356.7262c0.28615,1.12914 0,2.25828 -1.12914,3.109c-5.08887,3.67358 -17.80332,9.32702 -29.67477,9.32702c-28.26721,0 -48.05038,-24.59363 -48.05038,-67.269c0,-49.46568 20.6339,-81.12031 47.19966,-81.12031c6.78258,0 14.69431,1.12914 26.28735,7.06874c1.69371,0.85073 2.82286,1.69371 2.82286,2.82286c0,0.85073 -0.27842,1.70145 -0.84299,2.54443l-6.13331,6.43603c-0.85072,1.41529 -4.95973,4.70145 -5.81045,3.85073c-7.62557,-7.06874 -12.93603,-8.19788 -16.88802,-8.19788c-14.70204,0 -30.46449,31.04563 -30.46449,59.8774c0,32.78377 12.9639,57.91768 34.44079,57.91768c11.02846,0 23.15404,-7.10901 24.56933,-7.10901c0.85072,0 1.12914,0.28615 1.41529,1.13687l2.25829,9.60544" fill="#ed1e24"/><path d="M133.20236,314.78244l26.03644,49.8438c0.3766,0.55982 0.1883,1.30284 -0.55473,1.30284h-11.90368c-2.41738,0 -4.09173,-0.55982 -5.21136,-2.78889l-21.20168,-43.52299c-0.37152,-0.74302 -0.74303,-1.30284 -1.30284,-1.67435v46.68339c0,0.74302 -0.37151,1.30284 -1.11454,1.30284h-12.09198c-0.74303,0 -1.11454,-0.74302 -1.11454,-1.30284v-90.57789c0,-0.74302 0.55982,-1.30284 1.11454,-1.30284h12.09198c0.74303,0 1.11454,0.55982 1.11454,1.30284v40.9224c0.93133,-0.55982 1.86266,-1.86265 2.79398,-3.90852l16.73844,-34.77971c1.11454,-2.41738 2.22908,-3.53701 5.39457,-3.53701h10.97235c0.74302,0 0.93133,0.74811 0.55981,1.30284l-22.3213,40.7341" fill="#231f20"/><path d="M266.84222,284.96495h-11.90368c0,3.1655 -0.18321,8.18347 -0.55472,13.01822c-1.30284,22.3213 -5.02306,40.55088 -14.50936,56.72951h26.96777zM286.92936,354.71268c0.93133,0 1.49114,0.55981 1.49114,1.48605v25.67001c0,1.85757 -1.11963,2.78889 -2.23417,2.78889h-9.48631c-0.74302,0 -1.30284,-0.55982 -1.30284,-1.30284v-16.92674h-39.80276v15.44069c0,1.30284 -0.74303,2.78889 -2.7889,2.78889h-8.92648c-0.55981,0 -1.30284,-0.37151 -1.30284,-1.30284v-27.15606c0,-0.92624 0.37151,-1.48605 1.48605,-1.48605h4.09682c11.90368,-21.9447 13.20143,-50.96342 13.20143,-73.46794v-6.69232c0,-0.74811 0.55982,-1.30284 1.49114,-1.30284h37.19709c0.74302,0 1.11454,0.37151 1.11454,1.30284v76.81156c0,2.23417 0.74302,3.3487 3.537,3.3487h2.22908" data-paper-data="{&quot;index&quot;:null}" fill="#231f20"/><path d="M200.25795,311.37646c0,0 0,-3.3487 -0.18321,-6.32081c-0.93132,-14.32614 -4.65154,-22.50961 -10.60084,-22.50961c-6.5142,0 -10.41763,8.00025 -12.09198,23.80736c-0.37151,2.97719 -0.37151,5.76608 -0.37151,5.76608c0,0 6.69741,-0.74303 10.97235,-0.74303zM190.02862,271.01897c14.88087,0 25.1102,15.43559 25.1102,44.26601v7.81195h-27.15607c-4.27495,0 -11.53216,-0.87025 -11.53216,-0.87025v4.40217c0,16.36692 6.69741,28.83041 21.01846,28.83041c7.62365,0 13.01822,-2.04586 13.76125,-2.04586c0.93132,0 1.30284,0.37152 1.49114,1.11454l1.48605,6.32081c0.1883,0.74811 0,1.30284 -0.74303,1.67435c-4.09173,2.60568 -12.09198,6.13759 -21.20168,6.13759c-18.60109,0 -31.24779,-16.73844 -31.24779,-44.82074c0,-27.52758 8.92648,-52.82098 29.01362,-52.82098" data-paper-data="{&quot;index&quot;:null}" fill="#231f20"/></g></g></svg>