<svg version="1.1" xmlns="http://www.w3.org/2000/svg" xmlns:xlink="http://www.w3.org/1999/xlink" width="422.33195" height="165.1" viewBox="0,0,422.33195,165.1"><g transform="translate(24.61614,-63.55764)"><g data-paper-data="{&quot;isPaintingLayer&quot;:true}" fill-rule="nonzero" stroke="none" stroke-width="1" stroke-linecap="butt" stroke-linejoin="miter" stroke-miterlimit="10" stroke-dasharray="" stroke-dashoffset="0" style="mix-blend-mode: normal"><path d="M283.45223,106.89088h12.60425c1.0179,0 1.6242,0.8121 1.6242,1.42396v38.82511h23.37849v-38.82511c0,-1.0179 0.40606,-1.42396 1.42396,-1.42396h12.60425c1.01234,0 1.62421,0.61186 1.62421,1.42396v98.79821c0,1.01235 -0.40606,1.6242 -1.4184,1.6242h-12.81005c-0.8121,0 -1.42396,-0.61185 -1.42396,-1.6242v-47.16304h-23.37849v47.16304c0,1.01235 -0.6063,1.6242 -1.6242,1.6242h-12.60425c-1.0179,0 -1.42396,-0.81766 -1.42396,-1.6242v-98.7982c0,-0.8121 0.61186,-1.42396 1.42396,-1.42396" data-paper-data="{&quot;index&quot;:null}" fill="#231f20"/><path d="M94.9734,153.83299l28.45691,54.47751c0.41161,0.61185 0.2058,1.42396 -0.6063,1.42396h-13.0103c-2.64211,0 -4.47212,-0.61185 -5.69584,-3.04816l-23.17269,-47.56909c-0.40605,-0.8121 -0.8121,-1.42396 -1.42395,-1.83001v51.0233c0,0.8121 -0.40605,1.42396 -1.21815,1.42396h-13.21611c-0.8121,0 -1.21815,-0.8121 -1.21815,-1.42396v-98.99845c0,-0.8121 0.61186,-1.42395 1.21815,-1.42395h13.21611c0.8121,0 1.21815,0.61185 1.21815,1.42395v44.72674c1.0179,-0.61185 2.03581,-2.03581 3.05372,-4.27187l18.29452,-38.013c1.21815,-2.64211 2.43631,-3.86582 5.89608,-3.86582h11.9924c0.8121,0 1.0179,0.81766 0.61185,1.42395l-24.3964,44.52094" data-paper-data="{&quot;index&quot;:null}" fill="#231f20"/><path d="M247.26536,119.69704h-13.0103c0,3.45977 -0.20025,8.94424 -0.6063,14.22846c-1.42396,24.39641 -5.49002,44.32068 -15.85822,62.00335h29.47482zM269.21989,195.92885c1.0179,0 1.62976,0.61186 1.62976,1.62421v28.05642c0,2.03025 -1.22372,3.04816 -2.44187,3.04816h-10.36819c-0.8121,0 -1.42396,-0.61186 -1.42396,-1.42396v-18.50032h-43.50302v16.87612c0,1.42396 -0.8121,3.04816 -3.04816,3.04816h-9.75634c-0.61185,0 -1.42396,-0.40606 -1.42396,-1.42396v-29.68062c0,-1.01235 0.40605,-1.62421 1.6242,-1.62421h4.47768c13.0103,-23.98479 14.4287,-55.70123 14.4287,-80.29787v-7.31447c0,-0.81767 0.61186,-1.42396 1.62976,-1.42396h40.65511c0.8121,0 1.21815,0.40605 1.21815,1.42396v83.95233c0,2.44187 0.81211,3.66001 3.86583,3.66001h2.43631" data-paper-data="{&quot;index&quot;:null}" fill="#231f20"/><path d="M174.4911,148.56389c0,0 0,-3.66001 -0.20024,-6.90842c-1.01791,-15.65797 -5.08397,-24.60221 -11.58634,-24.60221c-7.11979,0 -11.3861,8.74399 -13.21611,26.02061c-0.40605,3.25396 -0.40605,6.30213 -0.40605,6.30213c0,0 7.32003,-0.81211 11.99239,-0.81211zM163.3108,104.45457c16.26427,0 27.44457,16.87057 27.44457,48.3812v8.53818h-29.68063c-4.67236,0 -12.60425,-0.95116 -12.60425,-0.95116v4.81142c0,17.88847 7.32003,31.51063 22.97244,31.51063c8.33238,0 14.22845,-2.23606 15.04055,-2.23606c1.01791,0 1.42396,0.40605 1.62977,1.21815l1.6242,6.90842c0.2058,0.81767 0,1.42396 -0.8121,1.83001c-4.47212,2.84792 -13.21611,6.70818 -23.17269,6.70818c-20.33033,0 -34.15274,-18.29453 -34.15274,-48.98749c0,-30.08667 9.75633,-57.73148 31.71087,-57.73148" data-paper-data="{&quot;index&quot;:null}" fill="#231f20"/><path d="M385.90188,118.92611h-3.83197c-8.16977,0 -15.70759,5.33196 -15.70759,22.07468c0,16.07565 6.07295,18.00444 14.91345,18.00444h5.12611zM396.24239,108.35317c0.93829,0 1.47342,0.40317 1.47342,1.3378v98.05557c0,0.66707 -0.26756,1.07024 -1.07024,1.07024h-10.30539c-0.53512,0 -0.93829,-0.53512 -0.93829,-0.93829v-36.30032h-1.69635l-18.61931,36.30032c-0.26756,0.67074 -0.80635,0.93829 -1.60903,0.93829h-12.51124c-1.07024,0 -1.74098,-0.93829 -1.07024,-2.14415l20.4959,-36.97105c-10.98466,-4.81976 -17.14589,-14.59856 -17.14589,-27.85932c0,-22.10126 12.72197,-33.48909 27.72737,-33.48909h15.2693" data-paper-data="{&quot;index&quot;:null}" fill="#231f20"/><path d="M54.23815,199.51093c0.28615,1.12914 0,2.25828 -1.12914,3.109c-5.08887,3.67358 -17.80332,9.32702 -29.67477,9.32702c-28.26721,0 -48.05038,-24.59363 -48.05038,-67.269c0,-49.46568 20.6339,-81.12031 47.19966,-81.12031c6.78258,0 14.69431,1.12914 26.28735,7.06874c1.69371,0.85073 2.82286,1.69371 2.82286,2.82286c0,0.85073 -0.27842,1.70145 -0.84299,2.54443l-6.13331,6.43603c-0.85072,1.41529 -4.95973,4.70145 -5.81045,3.85073c-7.62557,-7.06874 -12.93603,-8.19788 -16.88802,-8.19788c-14.70204,0 -30.46449,31.04563 -30.46449,59.8774c0,32.78377 12.9639,57.91768 34.44079,57.91768c11.02846,0 23.15404,-7.10901 24.56933,-7.10901c0.85072,0 1.12914,0.28615 1.41529,1.13687l2.25829,9.60544" fill="#ed1e24"/></g></g></svg>